/* XPM */
static const char *Yml0Y29pbjE2[] = {
/* columns rows colors chars-per-pixel */
"16 16 186 2 ",
"   c black",
".  c #010000",
"X  c #010001",
"o  c #010101",
"O  c #030001",
"+  c #040001",
"@  c #040002",
"#  c #040003",
"$  c #070106",
"%  c #050206",
"&  c #070506",
"*  c #080107",
"=  c #0B0006",
"-  c #0B0107",
";  c #090607",
":  c #0D070F",
">  c #0B090D",
",  c #080A0D",
"<  c #0C0C12",
"1  c #140213",
"2  c #160212",
"3  c #170213",
"4  c #150513",
"5  c #160215",
"6  c #190215",
"7  c #180217",
"8  c #1A0217",
"9  c #120A13",
"0  c #180B15",
"q  c #190318",
"w  c #1A0218",
"e  c #1A0319",
"r  c #1B0319",
"t  c #1D0319",
"y  c #1C031B",
"u  c #1C031C",
"i  c #1E031C",
"p  c #1F031C",
"a  c #1D041D",
"s  c #1F041D",
"d  c #150D19",
"f  c #1B091B",
"g  c #180D19",
"h  c #20091D",
"j  c #1D0E20",
"k  c #200420",
"l  c #220521",
"z  c #230720",
"x  c #230522",
"c  c #240421",
"v  c #250422",
"b  c #2C0D2B",
"n  c #2C0F2A",
"m  c #2C0C2C",
"M  c #221222",
"N  c #281429",
"B  c #2E152F",
"V  c #2D182F",
"C  c #301A2D",
"Z  c #311A2E",
"A  c #2E1F32",
"S  c #301231",
"D  c #331134",
"F  c #351E32",
"G  c #351835",
"H  c #351E34",
"J  c #351E36",
"K  c #38193A",
"L  c #24232C",
"P  c #232931",
"I  c #322737",
"U  c #3A2936",
"Y  c #312B3B",
"T  c #3F2D3E",
"R  c #35333F",
"E  c #412B3C",
"W  c #3F2444",
"Q  c #353843",
"!  c #393648",
"~  c #3E3548",
"^  c #412245",
"/  c #422345",
"(  c #412445",
")  c #442C42",
"_  c #442B4A",
"`  c #492E4F",
"'  c #473145",
"]  c #483E43",
"[  c #4B3D47",
"{  c #4D3C47",
"}  c #4A344B",
"|  c #483A48",
" . c #4C3A48",
".. c #4E3D48",
"X. c #4A2E52",
"o. c #4B2F53",
"O. c #493253",
"+. c #4A3353",
"@. c #503C54",
"#. c #513C5C",
"$. c #3A454F",
"%. c #494043",
"&. c #4D4246",
"*. c #4F454B",
"=. c #50444A",
"-. c #50464A",
";. c #54484E",
":. c #4A4859",
">. c #4A4D5D",
",. c #4A4E5D",
"<. c #564453",
"1. c #524C50",
"2. c #544E52",
"3. c #574E53",
"4. c #574F53",
"5. c #594C53",
"6. c #584F53",
"7. c #57465F",
"8. c #48515B",
"9. c #48525B",
"0. c #555151",
"q. c #5C5156",
"w. c #5E555B",
"e. c #5E565A",
"r. c #5E595E",
"t. c #564261",
"y. c #584461",
"u. c #5B4B63",
"i. c #545466",
"p. c #535769",
"a. c #57576D",
"s. c #505A68",
"d. c #56596B",
"f. c #545B6B",
"g. c #5A5A6C",
"h. c #605262",
"j. c #625463",
"k. c #625469",
"l. c #65566A",
"z. c #685C6B",
"x. c #54616E",
"c. c #6A6266",
"v. c #6F676C",
"b. c #606679",
"n. c #66697E",
"m. c #646D81",
"M. c #686F81",
"N. c #6B6F86",
"B. c #677282",
"V. c #6D7789",
"C. c #707A8E",
"Z. c #797D97",
"A. c #748095",
"S. c #768396",
"D. c #7E899D",
"F. c #7F8CA0",
"G. c #8493A7",
"H. c #8A9BB0",
"J. c #8A9DB0",
"K. c #8A9FB3",
"L. c #8D9EB3",
"P. c #909EB4",
"I. c #93A8BA",
"U. c #9EB3C9",
"Y. c #AAB9D4",
"T. c #A7C2D9",
"R. c #ABC2D9",
"E. c #AEC5DB",
"W. c #B1C3DD",
"Q. c #B9CDE9",
"!. c #BACDE9",
"~. c #B8D0E9",
"^. c #BCD3EE",
"/. c #BFD6F1",
"(. c #C5E7FF",
"). c #CBE5FF",
"_. c #CAE6FF",
"`. c #CDE9FF",
"'. c #D4E6FF",
"]. c #D9FBFF",
"[. c #DEFFFF",
"{. c #E6FAFF",
"}. c #E5FFFF",
"|. c #EAFEFF",
" X c #EBFFFF",
".X c None",
/* pixels */
".X.X.X.X.X=.<.} @.j.4..X.X.X.X.X",
".X.X.X] ' z m n B / ` k.1..X.X.X",
".X.X;.n z v . $ j > V o.y.e..X.X",
".X6.z i v . 8._.[.I.> N o.t.r..X",
".XE r z . 8. XL.x. X~.$ G +.l..X",
"4.r t i . `.H.. P L  Xi.& ( #.v.",
"..r i 8 * ].s.< m..  XM.. K +.z.",
"Z r i t @ (.{.Q : Q.}.d 1 S _ u.",
"Z 8 z * . T. X X'._.R . 1 D W 7.",
"[ 5 8 A 9 a.Z.! S.f.. g.Y f / h.",
"4.r . B.Q.b.D.F.V.>.P.W.U.I H c.",
".XU . K.^.S.K./.G.$.Y.R.E.~ | .X",
".X0.h p.g :.n.. f.N.4 C.>.M e..X",
".X.X=.; * @ . r @ . 1 . 0 6..X.X",
".X.X.X%.T 8 r r i a a ) *..X.X.X",
".X.X.X.X.X&.{ F H  .q..X.X.X.X.X"
};
