/* XPM */
static const char *Yml0Y29pbjMy[] = {
/* columns rows colors chars-per-pixel */
"32 32 162 2 ",
"   c #010000",
".  c #0D0107",
"X  c #0B030B",
"o  c #07090C",
"O  c #08080D",
"+  c #11020D",
"@  c #160213",
"#  c #190216",
"$  c #150C16",
"%  c #1D031B",
"&  c #1A091A",
"*  c #20041E",
"=  c #1E1222",
"-  c #1B1A23",
";  c #230522",
":  c #280626",
">  c #260B26",
",  c #290A27",
"<  c #2A0628",
"1  c #2B0C2B",
"2  c #261324",
"3  c #291727",
"4  c #261729",
"5  c #2D102D",
"6  c #2C1D2A",
"7  c #311A2E",
"8  c #330F34",
"9  c #2F1130",
"0  c #311434",
"q  c #351C33",
"w  c #361A3A",
"e  c #391D3D",
"r  c #1E242A",
"t  c #30242E",
"y  c #282533",
"u  c #212C30",
"i  c #342332",
"p  c #392636",
"a  c #3C233D",
"s  c #322F3D",
"d  c #3B2C39",
"f  c #2E343C",
"g  c #3E333D",
"h  c #40323E",
"j  c #3D2342",
"k  c #363543",
"l  c #3C3346",
"z  c #323C42",
"x  c #3A3649",
"c  c #3B3D4C",
"v  c #412646",
"b  c #442F43",
"n  c #442A4A",
"m  c #443644",
"M  c #473649",
"N  c #49304C",
"B  c #4B3B4A",
"V  c #4B3453",
"C  c #443C54",
"Z  c #4F3D53",
"A  c #523D5D",
"S  c #354147",
"D  c #3D4451",
"F  c #4B444C",
"G  c #4D4A4D",
"H  c #504B4F",
"J  c #444754",
"K  c #4A455B",
"L  c #4A4C5D",
"P  c #514253",
"I  c #544C54",
"U  c #584E57",
"Y  c #55455B",
"T  c #554A5A",
"R  c #5A4F5C",
"E  c #555355",
"W  c #595257",
"Q  c #54545C",
"!  c #595559",
"~  c #5B5959",
"^  c #4B4D60",
"/  c #5A4B61",
"(  c #4D5363",
")  c #515465",
"_  c #57536A",
"`  c #535B6A",
"'  c #5B5B72",
"]  c #635A63",
"[  c #605A78",
"{  c #586373",
"}  c #5E677B",
"|  c #646364",
" . c #67606A",
".. c #6A676A",
"X. c #6A6B6B",
"o. c #646A7D",
"O. c #706F70",
"+. c #757274",
"@. c #7E7D7E",
"#. c #646E81",
"$. c #686E80",
"%. c #6C6A88",
"&. c #647585",
"*. c #6F7D8E",
"=. c #797D8E",
"-. c #7A7597",
";. c #737D91",
":. c #7E779A",
">. c #758499",
",. c #7C8499",
"<. c #7C90A0",
"1. c #8387A2",
"2. c #8189A1",
"3. c #8592A6",
"4. c #8790AA",
"5. c #8B94AB",
"6. c #8F9CB5",
"7. c #959CB4",
"8. c #98A2BB",
"9. c #95A9BF",
"0. c #98A8BF",
"q. c #95A4BC",
"w. c #9FA5C1",
"e. c #96AAC1",
"r. c #9AAFC9",
"t. c #96B0C8",
"y. c #9CB4CB",
"u. c #A7AECB",
"i. c #A3B3CE",
"p. c #A3BACF",
"a. c #AAB6D2",
"s. c #A5BCD3",
"d. c #A8B8D3",
"f. c #A6BDD8",
"g. c #AFBEDB",
"h. c #A6C1D8",
"j. c #AEC3DD",
"k. c #B3C6E2",
"l. c #B4C9E3",
"z. c #B1CFEA",
"x. c #BACFEB",
"c. c #B4D2EB",
"v. c #BFD2EE",
"b. c #B7D7F4",
"n. c #B9D6F0",
"m. c #BFDDF7",
"M. c #C2DBF7",
"N. c #C3DDFA",
"B. c #C6E1FD",
"V. c #CBE4FF",
"C. c #CEECFF",
"Z. c #D6EFFF",
"A. c #CDFEFF",
"S. c #D3FFFF",
"D. c #D3F9FF",
"F. c #DDFBFF",
"G. c #E6FFFF",
"H. c #E0F9FF",
"J. c #EBFFFF",
"K. c #EBFFFF",
"L. c None",
"P. c black",
/* pixels */
"L.L.L.L.L.L.L.L.L.L.L.L...U M M B P ] X.L.L.L.L.L.L.L.L.L.L.L.L.",
"L.L.L.L.L.L.L.L.L.L.W B b q 1 0 w j V Y T ! L.L.L.L.L.L.L.L.L.L.",
"L.L.L.L.L.L.L.L.H a , , ; ; ; , 1 0 w a v V Y I L.L.L.L.L.L.L.L.",
"L.L.L.L.L.L.| d ; * ; ; ; ; ; ; ; ; , 1 0 e v V F ..L.L.L.L.L.L.",
"L.L.L.L.L.~ q % % * * * * ; ; * # * ; ; ; 1 0 j V Y E L.L.L.L.L.",
"L.L.L.L.E 7 % % * * * * ; +           + : ; ; 5 a V Y E L.L.L.L.",
"L.L.L.| 7 % % % * * ; ;   X $.r.z.y.o.X   ; ; ; 1 e V Y | L.L.L.",
"L.L.L.i # % % * * * ;   S V.J.J.J.J.J.V.z   ; ; ; 1 j V F L.L.L.",
"L.L.G # % % * * * ;   z J.J.J.c.t.N.J.J.J.f   ; ; ; 9 v A G L.L.",
"L.L.i # % * * * ; @   C.J.F.Q       =.J.J.V.  @ ; ; , w V T L.L.",
"L.! # # % * * * ;   ' J.J.)   *       3.J.J._   ; * ; 1 v A ! L.",
"L.m # % % * * * ;   6.J.b.    #.h.y   = F.J.5.  ; * ; ; w V T L.",
"L.i # % * * * * *   e.J.y.    &.J.&.  @ A.J.0.  ; * * ; 0 n / @.",
"W > # % * * * * *   e.J.C.    ' &.X   s G.J.2.  ; * * ; 1 j Y  .",
"d # % % * * * * *   e.J.J.5.          k.J.J.l   ; * * ; , w V R ",
"p # % % * * * * *   9.J.S.J.q.k & J k.J.J.f.  * * * * * ; 0 n T ",
"p # % % * * * * *   e.J.A.S.J.G.D.J.J.J.N.X . ; * * * * ; 0 v Y ",
"d @ # % * * * ; ;   f.J.J.J.J.J.J.J.G.9.O   < ; ; * * ; ; 0 v Y ",
"W > # % * * ;     @ C ' K [ -.:.%.c     @ :       * ; ; , 0 N ] ",
"L.i # % * * @ J ) @   ( ,.X       #.4.4     ( u.(   % ; 1 e Z @.",
"L.g @ # % %   B.F.  l.Z.g.J.k   V.M.j.J.u #.J.i.J.<.  ; 5 j F L.",
"L.E @ # % %   x.v.x J.^   J.7.} J.+   1.C J.g.  a.J.@ @ 0 j ! L.",
"L.L.6 @ % %   j.v.^ J.c   F.w.>.J..     = J.8.  7.J., @ w M L.L.",
"L.L.F @ @ # c H.V.o J.d.L J.o.r J.;.` J.D i.J.D J.N.  1 e G L.L.",
"L.L.L.6 X @ d.c.L   c k.B.,.    { n.m.*.  $ y.B.p.- @ 0 d L.L.L.",
"L.L.L.| 3 @ X     :     @   # ;   X X   ; +   &   + 8 a X.L.L.L.",
"L.L.L.L.E 2 @ @ % % ; % # ; ; * ; # # ; * ; ; # ; , q | L.L.L.L.",
"L.L.L.L.L.! 3 @ # % % % * * * * * * * * * * * * ; q ~ L.L.L.L.L.",
"L.L.L.L.L.L.X.t # # # % % % % * * * * % % % % ; i +.L.L.L.L.L.L.",
"L.L.L.L.L.L.L.L.F i % # # # % % % % % % % ; i F L.L.L.L.L.L.L.L.",
"L.L.L.L.L.L.L.L.L.L.W g p > # # # % 5 p h W L.L.L.L.L.L.L.L.L.L.",
"L.L.L.L.L.L.L.L.L.L.L.L.O.I d p p h U +.L.L.L.L.L.L.L.L.L.L.L.L."
};
