/* XPM */
static const char *Yml0Y29pbjY0[] = {
/* columns rows colors chars-per-pixel */
"64 64 195 2 ",
"   c #010000",
".  c #0B0005",
"X  c #06030B",
"o  c #0D010C",
"O  c #12010D",
"+  c #0C0912",
"@  c #0B0710",
"#  c #140213",
"$  c #190215",
"%  c #16031B",
"&  c #1D031B",
"*  c #130B18",
"=  c #0E151A",
"-  c #131319",
";  c #20041E",
":  c #1D0E21",
">  c #1E1525",
",  c #151C22",
"<  c #1A1A27",
"1  c #230522",
"2  c #280526",
"3  c #260925",
"4  c #280A27",
"5  c #2B0D2B",
"6  c #241227",
"7  c #2D122C",
"8  c #241F2D",
"9  c #211528",
"0  c #31142F",
"q  c #33182F",
"w  c #2E1230",
"e  c #2B1C33",
"r  c #311534",
"t  c #341A35",
"y  c #361B3A",
"u  c #3A1E3D",
"i  c #2D2335",
"p  c #2D2339",
"a  c #2D2C39",
"s  c #252834",
"d  c #352232",
"f  c #3A2636",
"g  c #392937",
"h  c #3B223D",
"j  c #3C2C3B",
"k  c #35293C",
"l  c #2D323E",
"z  c #3D3C3D",
"x  c #41373F",
"c  c #3E2343",
"v  c #332C41",
"b  c #2F3142",
"n  c #343444",
"m  c #3B3C4D",
"M  c #373948",
"N  c #3D3B50",
"B  c #412646",
"V  c #422C44",
"C  c #452C4A",
"Z  c #482F4C",
"A  c #443443",
"S  c #493546",
"D  c #443C43",
"F  c #44344A",
"G  c #49344C",
"H  c #433A4D",
"J  c #4B3B4A",
"K  c #483F47",
"L  c #4C3550",
"P  c #423E52",
"I  c #4D3B52",
"U  c #37404B",
"Y  c #3A4252",
"T  c #454445",
"R  c #494247",
"E  c #4B444B",
"W  c #4C4B4C",
"Q  c #50474F",
"!  c #514D4F",
"~  c #424254",
"^  c #4C4353",
"/  c #4F4851",
"(  c #44485B",
")  c #4A4A5D",
"_  c #524554",
"`  c #514B51",
"'  c #535454",
"]  c #5B5A5B",
"[  c #575758",
"{  c #605E5E",
"}  c #4C4D60",
"|  c #524D62",
" . c #4D5266",
".. c #465463",
"X. c #545265",
"o. c #54556C",
"O. c #54596C",
"+. c #5D5867",
"@. c #545C72",
"#. c #5A5A71",
"$. c #575472",
"%. c #5E6076",
"&. c #5D657C",
"*. c #5E707F",
"=. c #626263",
"-. c #6B6C6C",
";. c #686867",
":. c #64667F",
">. c #65697F",
",. c #606077",
"<. c #6F7070",
"1. c #737374",
"2. c #7C7B7C",
"3. c #807F7F",
"4. c #6A6781",
"5. c #6B6B84",
"6. c #656A83",
"7. c #627586",
"8. c #71758F",
"9. c #767C94",
"0. c #757E99",
"q. c #797998",
"w. c #75839D",
"e. c #77849B",
"r. c #7B85A1",
"t. c #7B8CA3",
"y. c #848484",
"u. c #888787",
"i. c #8B8A8B",
"p. c #908F8F",
"a. c #908F90",
"s. c #939393",
"d. c #9B9B9B",
"f. c #989798",
"g. c #A09F9F",
"h. c #818BA5",
"j. c #868BAB",
"k. c #8392AB",
"l. c #8890AC",
"z. c #8B9AB5",
"x. c #8896B4",
"c. c #919AB3",
"v. c #929DB9",
"b. c #95A3BD",
"n. c #A4A4A4",
"m. c #AAA8A9",
"M. c #8FA5C3",
"N. c #94A6C0",
"B. c #96ADC6",
"V. c #9BADC5",
"C. c #9CADC9",
"Z. c #99A7C3",
"A. c #9CB2CB",
"S. c #9EB5D1",
"D. c #A0A9C8",
"F. c #A5BDDA",
"G. c #AABCDC",
"H. c #A6BAD5",
"J. c #ACC1DD",
"K. c #AEC9E7",
"L. c #ADC8E6",
"P. c #B3CDEB",
"I. c #BACDEE",
"U. c #B3C6E6",
"Y. c #BBD1EF",
"T. c #BDCDF0",
"R. c #B4D3F2",
"E. c #BCD4F4",
"W. c #BDDBFB",
"Q. c #BAD9F6",
"!. c #C3DCFD",
"~. c #CCDDFF",
"^. c #C5E3FF",
"/. c #CBE2FF",
"(. c #CDEAFF",
"). c #D3EBFF",
"_. c #D5E9FF",
"`. c #CBFFFF",
"'. c #CDFFFF",
"]. c #CFFFFF",
"[. c #CEFFFF",
"{. c #CEFFFF",
"}. c #CFF0FF",
"|. c #D4F3FF",
" X c #DBF5FF",
".X c #D5FFFF",
"XX c #D3FFFF",
"oX c #DBFFFF",
"OX c #DDFEFF",
"+X c #E5FFFF",
"@X c #E4FFFF",
"#X c #EBFFFF",
"$X c #EBFFFF",
"%X c None",
"&X c black",
/* pixels */
"%X%X%X%X%X%X%X%X%X%X%X%X%X%X%X%X%X%X%X%X%X%X%X%X%X%X%X%Xi.i.i.2.2.i.s.i.%X%X%X%X%X%X%X%X%X%X%X%X%X%X%X%X%X%X%X%X%X%X%X%X%X%X%X%X",
"%X%X%X%X%X%X%X%X%X%X%X%X%X%X%X%X%X%X%X%X%X%X%Xi.1.=.] W S j j V A A A E ` ] =.1.i.%X%X%X%X%X%X%X%X%X%X%X%X%X%X%X%X%X%X%X%X%X%X%X",
"%X%X%X%X%X%X%X%X%X%X%X%X%X%X%X%X%X%X%X%Xu.=.' ! Q J V u 5 5 5 7 r r r y V G ^ ` W ' -.i.%X%X%X%X%X%X%X%X%X%X%X%X%X%X%X%X%X%X%X%X",
"%X%X%X%X%X%X%X%X%X%X%X%X%X%X%X%X%X%X2.' ` E A 0 3 3 3 3 4 4 4 5 5 5 w r r y y y B J ` W ] y.%X%X%X%X%X%X%X%X%X%X%X%X%X%X%X%X%X%X",
"%X%X%X%X%X%X%X%X%X%X%X%X%X%X%X%X2.' W J 0 1 1 1 1 1 1 1 1 1 1 1 3 4 4 5 5 7 r r y y u C _ W ' u.%X%X%X%X%X%X%X%X%X%X%X%X%X%X%X%X",
"%X%X%X%X%X%X%X%X%X%X%X%X%X%X%X{ W J 4 1 1 1 1 1 1 1 1 1 1 1 1 1 1 1 1 1 3 4 4 5 7 r t y c C _ W =.%X%X%X%X%X%X%X%X%X%X%X%X%X%X%X",
"%X%X%X%X%X%X%X%X%X%X%X%X%X3.T Q t ; ; ; 1 1 1 1 1 1 1 1 1 1 1 1 1 1 1 1 1 1 1 1 4 5 5 r y u c G ` W u.%X%X%X%X%X%X%X%X%X%X%X%X%X",
"%X%X%X%X%X%X%X%X%X%X%X%X=.T S & & ; ; ; ; 1 1 1 ; ; ; ; ; ; ; ; ; ; ; ; 1 1 1 1 1 1 4 4 5 r y h c _ T =.%X%X%X%X%X%X%X%X%X%X%X%X",
"%X%X%X%X%X%X%X%X%X%X%X' E t & & & ; ; ; ; ; ; ; ; ; ; ; ; ; ; ; ; ; ; ; ; ; ; 1 1 1 1 1 3 5 w t u c L E =.%X%X%X%X%X%X%X%X%X%X%X",
"%X%X%X%X%X%X%X%X%X%XT ! 4 & & & ; ; ; ; ; ; ; ; ; ; ; ; ; ; ; ; ; ; ; ; ; ; ; ; ; ; 1 1 1 1 4 5 r u c Z E ' %X%X%X%X%X%X%X%X%X%X",
"%X%X%X%X%X%X%X%X%XW W 1 & & & ; ; ; ; ; ; ; ; ; ; ; ; ; ; 1 1 1 ; ; 1 1 1 ; ; ; ; ; ; ; 1 1 1 3 5 r y c C W ' %X%X%X%X%X%X%X%X%X",
"%X%X%X%X%X%X%X%XW ` 1 & & & ; ; ; ; ; ; ; ; ; ; ; ; ; 1 ; .             . ; 1 ; ; ; ; ; ; 1 1 1 1 5 r y c C W =.%X%X%X%X%X%X%X%X",
"%X%X%X%X%X%X%X] W 3 & & & & ; ; ; ; ; ; ; ; ; ; ; 1 ;     6 ) 0.x.z.r.) :     ; 1 ; ; ; ; ; ; 1 1 1 4 r y c G E ;.%X%X%X%X%X%X%X",
"%X%X%X%X%X%X2.T q & & & & ; ; ; ; ; ; ; ; ; ; ; 2 .   Y N. X#X#X#X#X#X#X|.N.m   . 2 ; ; ; ; ; ; 1 1 1 4 r u B I T u.%X%X%X%X%X%X",
"%X%X%X%X%X%Xz S & & & & ; ; ; ; ; ; ; ; ; ; ; 2   + B.#X#X+X.X].].].]..X+X#X#Xb.X   2 ; ; ; ; ; ; 1 1 1 5 r u B _ T n.%X%X%X%X%X",
"%X%X%X%X%X' ` & & & & ; ; ; ; ; ; ; ; ; ; ; 2   , /.#XoX].].].].].].].].].`.oX#X~.,   2 ; ; ; ; ; ; 1 1 1 5 t c B ` =.%X%X%X%X%X",
"%X%X%X%Xy.T 5 & & & & ; ; ; ; ; ; ; ; ; ; 1   ,  X#X].].]..X#X#X#X#X#X+X].].].].#X).=   1 ; ; ; ; ; ; 1 1 3 7 y B L T i.%X%X%X%X",
"%X%X%X%XW J & & & & ; ; ; ; ; ; ; ; ; ; 1 O   ^.#X`.].].#X#XR.k.r.w.B.|.#XoX].XX`.#X!.  O 1 ; ; ; ; ; ; 1 1 4 r u B _ ' %X%X%X%X",
"%X%X%Xy.W ; & & & ; ; ; ; ; ; ; ; ; ; ; 1   k.#X].].].#X~.)           * h.#X@X`.XX].#Xe.  1 ; ; ; ; ; ; 1 1 1 5 y c C W i.%X%X%X",
"%X%X%XW J & & & & ; ; ; ; ; ; ; ; ; ; 1 . 9 +X@X].].#XT.X   $ 1 1 1 ; .    .#XOX].].+X@X: . 1 ; ; ; ; ; ; 1 1 4 r u B _ ] %X%X%X",
"%X%Xf.W 4 & & & ; ; ; ; ; ; ; ; ; ; ; 1   e.#X].].+X).X   2 1 o $ 1 & 1 ;   6.#X.XXX].#X9.  1 ; ; ; ; ; ; ; 1 1 5 y c G W f.%X%X",
"%X%X=.Q & & & & ; ; ; ; ; ; ; ; ; ; ; $   E.#X].XX#Xo.  2 ; & 7 . o 1 ; 1 $   P.#X].].#XK.  & ; ; ; ; ; ; ; 1 1 4 r u B / 1.%X%X",
"%X%XW j & & & & ; ; ; ; ; ; ; ; ; ; 1 . w OX+X].#X^.  O 1 ;   F.J.    1 ; 1   @.#XXX].#X|.1 . 1 ; ; ; ; ; ; ; 1 1 5 y B I ' %X%X",
"%Xs.W 1 & & & ; ; ; ; ; ; ; ; ; ; ; 1   P #X.X].#XN.  1 ; ;   A.#XE.s . 1 1 . i @XOX].OX#Xn . 1 ; ; ; ; ; ; ; 1 1 4 r c C W f.%X",
"%X1.E & & & & ; ; ; ; ; ; ; ; ; ; ; 1    .#X.X].#Xt.  1 ; ;   N.#X#X#Xb   1 . e .X@X].oX#XN   1 ; ; ; ; ; ; ; 1 1 4 r u B / 1.%X",
"%X+.S & & & & ; ; ; ; ; ; ; ; ; ; ; 1   #.#X.X].#Xx.  1 ; ;   b.#X#Xe.* # 1 . e oX@X].oX#Xm   1 ; ; ; ; ; ; ; ; 1 1 5 y B ^ -.%X",
"%X[ f & & & & ; ; ; ; ; ; ; ; ; ; ; 1   o.#X.X].#XP.  & ; ;   P.OXU   $ 1 1   ~ #X.X].@XOXe . 1 ; ; ; ; ; ; ; ; 1 1 5 t c I ' %X",
"%XD 7 & & & ; ; ; ; ; ; ; ; ; ; ; ; 1   o.#X.XXXOX+Xp   1 ; O $.v   1 1 ; 1   M.#X].].#XW.X $ ; ; ; ; ; ; ; ; ; 1 1 4 r h G W %X",
"u.D & & & & ; ; ; ; ; ; ; ; ; ; ; ; 1   o.#X.XXX].#XF.  # 1 1   . 1 & & 2   p #XOX].].#Xz.  1 ; ; ; ; ; ; ; ; ; 1 1 4 w u B E s.",
"y.g & & & & ; ; ; ; ; ; ; ; ; ; ; ; 1   o.#X.XXXXXXX#X0.  o 1 1 1 1 1 &   @ /.#X`.XXoX#XN   1 ; ; ; ; ; ; ; ; ; ; 1 1 5 y c F d.",
"s.d & & & & ; ; ; ; ; ; ; ; ; ; ; ; 1   o.#X.XXXXX].oX#Xk.X     . .     M ~.#X].XX`.#XL.  & ; ; ; ; ; ; ; ; ; ; ; 1 1 5 y c J p.",
"y.d & & & & ; ; ; ; ; ; ; ; ; ; ; ; 1   o.#X.XXXXXXX]..X#X^.w.( i v O.A.#X#X`.XX`.+X#Xs   1 ; ; ; ; ; ; ; ; ; ; ; 1 1 5 r c J y.",
"y.d & & & & ; ; ; ; ; ; ; ; ; ; ; ; 1   o.#X.XXXXXXXXX].].#X#X#XOX@X#X#XoX].XX`.OX#X@.  1 ; ; ; ; ; ; ; ; ; ; ; ; 1 1 5 r u G y.",
"s.d & & & & ; ; ; ; ; ; ; ; ; ; ; ; 1   o.#X.XXXXXXXXXXXXX].]..XOXOX.X].XX].`.#X#X7.  ; 1 ; ; ; ; ; ; ; ; ; ; ; ; 1 1 5 r u F a.",
"u.g & & & & ; ; ; ; ; ; ; ; ; ; ; ; 1   o.#XXX].].].].].].].].].].].].].XX@X#X X..  & 1 ; ; ; ; ; ; ; ; ; ; ; ; ; 1 1 5 r u S d.",
"u.A & & & & ; ; ; ; ; ; ; ; ; ; ; ; 1   &.#X#X#X#X#X#X#X#X#X#X#X#X#X#X#X#X Xz.,   ; 1 ; ; ; ; ; ; ; ; ; ; ; ; ; ; 1 1 5 r u J s.",
"%XD 7 & & & ; ; ; ; ; ; ; ; ; ; ; ; 1 . v !.(.^.^.^.^.^.^.^.^.^.^.^.R.C.6.>   . 1 1 ; ; ; ; ; ; ; ; ; ; ; ; ; ; 1 1 3 5 t V W %X",
"%X' f & & & & & ; ; ; ; ; ; ; ; ; ; ; 1 O # % o X o % % % % % % % %       . 1 1 & ; ; 1 1 & # # & 1 1 ; ; ; ; ; 1 1 4 w y S ] %X",
"%X{ A & & & & & ; ; ; ; ; 2 O       2 1 1       .       $ O O $ .     o # .   O 1 & 1 $     o o     $ 1 ; ; ; ; 1 1 4 r y J 1.%X",
"%X1.R $ & & & & ; ; ; ; 1   ) V.V.6.  1   n b.W. XQ.c.8   1 1 #   #.S.(.|.K.9.    2 O   :.F.}.|.F.:.  o 1 ; ; ; 1 1 5 r y E 2.%X",
"%Xs.W ; $ & & & ; ; ; ; 1   9.#X#XH.    ) #X#X#XOX#X#X Xa   &   N.#X#X#XOX#X#XY.  o   C.#X#X#X#X#X#XA.  $ 1 ; 1 1 3 5 r h W g.%X",
"%X%XW f $ & & & ; ; ; ; 1   4.#X#Xb.  # OX#X@Xo.  4.+X#X^.    4.#X#X!.<   k.#X#Xl.  4.#X#XY.+ X U.#X#X5.  1 ; 1 1 4 w t A ] %X%X",
"%X%X;.K $ & & & ; ; ; ; 1   4.#X#Xb.  $.#X#XP.      !.#X#XF   E.#X#XX.    o @X#XG.  G.#X#XO.    } #X#XI.  & ; 1 1 5 r y E 2.%X%X",
"%X%Xf.T 3 & & & & ; ; ; 1   4.#X#Xb.  q.#X#XC.  &   J.#X#XX.  |.#X#Xj   1 & e i & o !.#X#X^     H #X#X(.& O 1 1 3 5 r h W d.%X%X",
"%X%X%X' A & & & & ; ; ; 1   4.#X#Xb.  j.#X#XV.  &   F.#X#X#.  OX#X+Xk   1 ;       & (.#X#X~     H #X#X|.3 . 1 1 4 7 r S =.%X%X%X",
"%X%X%Xi.T & & & & & ; ; 1   :.#X#Xb.  8.#X#XA.  $   J.#X#XX.  |.#X#Xk   1 # p k 6 . W.#X#X^     H #X#X/.# O 1 1 5 r t W a.%X%X%X",
"%X%X%X%X' A $ & & & 1 1     #.#X#XZ.  I #X#X!.      ).#X#Xh   J.#X#X%.    : +X#XI.  D.#X#X5.    ,.#X#XJ.  ; 1 4 5 r S =.%X%X%X%X",
"%X%X%X%Xu.T 3 & & & & 1 P Y G.@X#Xl.    E.#X#Xj.l z.#X#XL.    ~ #X#X).} M K.#X#X8.  H #X#X(.( ~ /.#X#X|   1 1 4 7 y W s.%X%X%X%X",
"%X%X%X%X%X=.R $ & & o # +X#X#X#X).8 . . - E.#X#X#X#X#XI.- . 1   *.+X#X#X#X#X#Xt.  &   7.#X#X#X#X#X#Xe.  ; 1 4 5 7 D 1.%X%X%X%X%X",
"%X%X%X%X%X%XT j & & # # 0.V.b.r.>   1 1     %.v.A.c.#.. . 2 1 &   i 0.Z.A.h.n   $ 1 &   a r.V.V.h.n   & 1 1 4 5 j ' m.%X%X%X%X%X",
"%X%X%X%X%X%Xu.T 7 & & &         . 1 ; ; 1 #           # 1 ; ; 1 1 .           ; 1 ; 1 1 .         . 1 1 1 4 5 t W i.%X%X%X%X%X%X",
"%X%X%X%X%X%X%X;.R ; & & & & & 1 1 ; ; ; ; 1 1 1 ; 1 1 1 ; ; ; & ; 1 1 ; ; 1 1 ; ; ; ; ; 1 1 ; ; 1 1 1 1 1 4 7 R 1.%X%X%X%X%X%X%X",
"%X%X%X%X%X%X%X%X] R & & & & & & ; ; ; ; ; ; ; ; ; ; ; ; ; ; ; ; ; ; ; ; ; ; ; ; ; ; ; ; ; ; ; 1 1 1 1 1 4 5 D 1.%X%X%X%X%X%X%X%X",
"%X%X%X%X%X%X%X%X%X[ D & $ & & & & & ; ; ; ; ; ; ; ; ; ; ; ; ; ; ; ; ; ; ; ; ; ; ; ; ; ; ; ; ; 1 1 1 1 1 5 D ;.%X%X%X%X%X%X%X%X%X",
"%X%X%X%X%X%X%X%X%X%X' D 1 $ & & & & & ; ; ; ; ; ; ; ; ; ; ; ; ; ; ; ; ; ; ; ; ; ; ; ; ; ; ; ; ; 1 1 1 5 D -.%X%X%X%X%X%X%X%X%X%X",
"%X%X%X%X%X%X%X%X%X%X%X=.D 7 & & & & & & & ; ; ; ; ; ; ; ; ; ; ; ; ; ; ; ; ; ; ; ; ; ; ; ; ; ; ; ; 1 0 R 1.%X%X%X%X%X%X%X%X%X%X%X",
"%X%X%X%X%X%X%X%X%X%X%X%X-.W g & & & & & & & & ; ; ; ; ; ; ; ; ; ; ; ; ; ; ; ; ; ; ; ; ; ; ; ; ; ; f ' 2.%X%X%X%X%X%X%X%X%X%X%X%X",
"%X%X%X%X%X%X%X%X%X%X%X%X%Xu.' x 7 & & & & & & & & & & ; ; ; ; ; ; ; ; ; ; ; ; ; ; ; & & & & & 7 x ] a.%X%X%X%X%X%X%X%X%X%X%X%X%X",
"%X%X%X%X%X%X%X%X%X%X%X%X%X%X%X<.W j 1 & & & & & & & & & & & & ; ; ; ; ; & & & & & & & & & 3 g ' 2.n.%X%X%X%X%X%X%X%X%X%X%X%X%X%X",
"%X%X%X%X%X%X%X%X%X%X%X%X%X%X%X%Xi.=.E j 4 & & & & & & & & & & & & & & & & & & & & & & 5 g W -.s.%X%X%X%X%X%X%X%X%X%X%X%X%X%X%X%X",
"%X%X%X%X%X%X%X%X%X%X%X%X%X%X%X%X%X%Xi.;.' A d 1 & & & & & & & & & & & & & & & & 3 t A ' <.s.%X%X%X%X%X%X%X%X%X%X%X%X%X%X%X%X%X%X",
"%X%X%X%X%X%X%X%X%X%X%X%X%X%X%X%X%X%X%X%Xs.2.=.W D g t 7 & & & & & & & & 7 t g D ' =.2.d.%X%X%X%X%X%X%X%X%X%X%X%X%X%X%X%X%X%X%X%X",
"%X%X%X%X%X%X%X%X%X%X%X%X%X%X%X%X%X%X%X%X%X%X%Xs.y.-.=.` A d d d d d f A ` =.1.y.f.%X%X%X%X%X%X%X%X%X%X%X%X%X%X%X%X%X%X%X%X%X%X%X",
"%X%X%X%X%X%X%X%X%X%X%X%X%X%X%X%X%X%X%X%X%X%X%X%X%X%X%X%Xs.g.s.i.u.s.n.s.%X%X%X%X%X%X%X%X%X%X%X%X%X%X%X%X%X%X%X%X%X%X%X%X%X%X%X%X"
};
